<svg
	xmlns="http://www.w3.org/2000/svg"
	xmlns:xlink="http://www.w3.org/1999/xlink"
	width="121px" height="121px">
	<path fill-rule="evenodd"  fill="rgb(255, 255, 255)"
				d="M60.500,120.516 C27.324,120.516 0.484,93.677 0.484,60.500 C0.484,27.324 27.324,0.484 60.500,0.484 C93.676,0.484 120.516,27.324 120.516,60.500 C120.516,93.677 93.676,120.516 60.500,120.516 ZM60.500,7.194 C31.051,7.194 7.194,31.052 7.194,60.500 C7.194,90.321 31.051,114.178 60.500,114.178 C90.321,114.178 114.179,90.321 114.179,60.500 C114.179,31.052 90.321,7.194 60.500,7.194 ZM47.080,38.134 L82.866,60.500 L47.080,82.866 L47.080,38.134 ZM53.790,70.937 L70.565,60.500 L53.790,50.062 L53.790,70.937 Z"/>
</svg>
